# xmcd
#
# Track frame offsets:
#	182
#	18375
#	30987
#	48032
#
# Disc length: 890 seconds
#
# Revision: 2
# Processed by: cddbd v1.5.2PL0 Copyright (c) Steve Scherf et al.
# Submitted via: audiograbber 1.83.01
#
DISCID=1f037804
DTITLE=Cruel Sea, The - Just A Man [EP]
DYEAR=1995
DGENRE=Rock
TTITLE0=Just A Man
TTITLE1=Down The Stairs Backwards
TTITLE2=See Ya Later
TTITLE3=Moby Dick
EXTD=
EXTT0=
EXTT1=
EXTT2=
EXTT3=
PLAYORDER=
